# Blender v2.79 (sub 0) OBJ File: 'New_Low-Poly_Stuff.blend'
# www.blender.org
mtllib Ceiling_Lamp_3__Low-Poly_-(Wavefront).mtl
o Ceiling_Lamp_3_(Low-Poly)_Cube.010
v -0.034097 0.227719 -0.105480
v -0.034097 0.227719 0.105480
v 0.034097 0.227719 -0.105480
v 0.034097 0.227719 0.105480
v -0.103562 0.229827 -0.105480
v -0.103562 0.229828 0.105480
v 0.103562 0.229827 -0.105480
v 0.103562 0.229828 0.105480
v -0.034097 0.227719 0.119384
v 0.034097 0.227719 0.119384
v 0.034097 0.227719 -0.119384
v -0.034097 0.227719 -0.119384
v -0.034097 0.046931 -0.105480
v -0.034097 0.016760 -0.081092
v -0.034097 0.032158 -0.103205
v -0.034097 0.021196 -0.094277
v -0.034097 0.016760 0.081092
v -0.034097 0.046931 0.105480
v -0.034097 0.021196 0.094277
v -0.034097 0.032158 0.103205
v 0.034097 0.016760 -0.081092
v 0.034097 0.046931 -0.105480
v 0.034097 0.021196 -0.094277
v 0.034097 0.032158 -0.103205
v 0.034097 0.046931 0.105480
v 0.034097 0.016760 0.081092
v 0.034097 0.032158 0.103205
v 0.034097 0.021196 0.094277
v 0.034097 0.001663 0.081092
v 0.034097 0.046931 0.119384
v 0.034097 0.008737 0.101716
v 0.034097 0.022544 0.115523
v -0.034097 0.046931 0.119384
v -0.034097 0.001663 0.081092
v -0.034097 0.022544 0.115523
v -0.034097 0.008737 0.101716
v -0.034097 0.001663 -0.081092
v -0.034097 0.046931 -0.119384
v -0.034097 0.008737 -0.101716
v -0.034097 0.022544 -0.115523
v 0.034097 0.046931 -0.119384
v 0.034097 0.001663 -0.081092
v 0.034097 0.022544 -0.115523
v 0.034097 0.008737 -0.101716
v -0.103562 0.143465 0.105480
v -0.103562 0.143465 -0.105480
v 0.103562 0.143465 0.105480
v 0.103562 0.143465 -0.105480
v -0.094448 0.142944 -0.055303
v -0.094448 0.142944 0.055303
v 0.094448 0.142944 -0.055303
v 0.094448 0.142944 0.055303
v -0.094448 0.060558 0.055303
v -0.094448 0.060558 -0.055303
v 0.094448 0.060558 0.055303
v 0.094448 0.060558 -0.055303
v -0.176803 0.230195 -0.180076
v -0.176803 0.230195 0.180076
v 0.176803 0.230195 -0.180076
v 0.176803 0.230195 0.180076
v -0.176803 0.241026 0.180076
v -0.176803 0.241026 -0.180076
v 0.176803 0.241026 0.180076
v 0.176803 0.241026 -0.180076
v -0.129688 0.241026 0.132089
v -0.129688 0.241026 -0.132089
v 0.129688 0.241026 0.132089
v 0.129688 0.241026 -0.132089
v -0.129048 0.238366 0.131437
v -0.129048 0.238366 -0.131437
v 0.129048 0.238366 0.131437
v 0.129048 0.238366 -0.131437
v -0.034097 0.227719 -0.105480
v -0.034097 0.227719 0.105480
v 0.034097 0.227719 -0.105480
v 0.034097 0.227719 0.105480
v -0.034097 0.227719 0.119384
v 0.034097 0.227719 0.119384
v 0.034097 0.227719 -0.119384
v -0.034097 0.227719 -0.119384
v -0.034097 0.046931 -0.105480
v -0.034097 0.016760 -0.081092
v -0.034097 0.032158 -0.103205
v -0.034097 0.021196 -0.094277
v -0.034097 0.016760 0.081092
v -0.034097 0.046931 0.105480
v -0.034097 0.021196 0.094277
v -0.034097 0.032158 0.103205
v 0.034097 0.016760 -0.081092
v 0.034097 0.046931 -0.105480
v 0.034097 0.021196 -0.094277
v 0.034097 0.032158 -0.103205
v 0.034097 0.046931 0.105480
v 0.034097 0.016760 0.081092
v 0.034097 0.032158 0.103205
v 0.034097 0.021196 0.094277
v 0.034097 0.001663 0.081092
v 0.034097 0.046931 0.119384
v 0.034097 0.008737 0.101716
v 0.034097 0.022544 0.115523
v -0.034097 0.046931 0.119384
v -0.034097 0.001663 0.081092
v -0.034097 0.022544 0.115523
v -0.034097 0.008737 0.101716
v -0.034097 0.001663 -0.081092
v -0.034097 0.046931 -0.119384
v -0.034097 0.008737 -0.101716
v -0.034097 0.022544 -0.115523
v 0.034097 0.046931 -0.119384
v 0.034097 0.001663 -0.081092
v 0.034097 0.022544 -0.115523
v 0.034097 0.008737 -0.101716
v -0.176803 0.242351 0.180076
v -0.176803 0.242351 -0.180076
v 0.176803 0.242351 0.180076
v 0.176803 0.242351 -0.180076
v -0.174981 0.246652 0.178220
v -0.174981 0.246652 -0.178220
v 0.174981 0.246652 0.178220
v 0.174981 0.246652 -0.178220
vt 0.358526 0.717535
vt 0.372600 0.717535
vt 0.372600 0.868719
vt 0.358526 0.868719
vt 0.357144 0.868719
vt 0.343070 0.868719
vt 0.343070 0.717535
vt 0.357144 0.717535
vt 0.897853 0.788819
vt 0.884978 0.790307
vt 0.865625 0.622897
vt 0.878500 0.621407
vt 0.844890 0.530967
vt 0.832014 0.529480
vt 0.851367 0.362069
vt 0.864243 0.363557
vt 0.844890 0.745778
vt 0.832014 0.744290
vt 0.851367 0.576879
vt 0.864242 0.578367
vt 0.845414 0.544891
vt 0.832979 0.552475
vt 0.852509 0.555997
vt 0.844285 0.566738
vt 0.864243 0.561517
vt 0.862626 0.575496
vt 0.878500 0.406596
vt 0.865625 0.408086
vt 0.866590 0.385089
vt 0.879025 0.392674
vt 0.877896 0.370827
vt 0.886119 0.381568
vt 0.896237 0.362069
vt 0.897853 0.376048
vt 0.845415 0.759702
vt 0.832979 0.767285
vt 0.852508 0.770807
vt 0.844286 0.781548
vt 0.864242 0.776327
vt 0.862626 0.790307
vt 0.866590 0.599899
vt 0.879026 0.607484
vt 0.877896 0.585637
vt 0.886119 0.596379
vt 0.896237 0.576879
vt 0.897853 0.590859
vt 0.897853 0.574009
vt 0.884978 0.575496
vt 0.620224 0.635648
vt 0.423574 0.635648
vt 0.423574 0.442572
vt 0.620224 0.442573
vt 0.620224 0.362069
vt 0.423574 0.362069
vt 0.423574 0.716153
vt 0.620224 0.716153
vt 0.343070 0.442572
vt 0.343070 0.635648
vt 0.700729 0.635649
vt 0.700729 0.442573
vt 0.773222 0.077489
vt 0.876327 0.077489
vt 0.876327 0.253573
vt 0.773222 0.253573
vt 0.773222 0.330370
vt 0.876327 0.330370
vt 0.876327 0.000691
vt 0.773222 0.000692
vt 0.953125 0.253573
vt 0.953125 0.077489
vt 0.696425 0.077489
vt 0.696425 0.253573
vt 0.000691 0.666627
vt 0.336415 0.666628
vt 0.336415 0.996247
vt 0.000692 0.996248
vt 0.348592 0.355128
vt 0.348649 0.007615
vt 0.394053 0.053642
vt 0.394121 0.308531
vt 0.343398 0.002388
vt 0.695043 0.000691
vt 0.689851 0.005913
vt 0.695043 0.358658
vt 0.343070 0.360686
vt 0.689793 0.353429
vt 0.395546 0.055140
vt 0.395871 0.306755
vt 0.644388 0.307402
vt 0.644321 0.052510
vt 0.642897 0.305903
vt 0.642572 0.054287
vt 0.003327 0.335624
vt 0.339052 0.335624
vt 0.339051 0.665245
vt 0.003327 0.665244
vt 0.005057 0.331269
vt 0.005057 0.005045
vt 0.337321 0.005046
vt 0.337321 0.331270
vt 0.003329 0.000692
vt 0.339052 0.000691
vt 0.341688 0.003347
vt 0.341688 0.332969
vt 0.000691 0.332968
vt 0.000692 0.003347
vt 0.767063 0.362069
vt 0.830631 0.362069
vt 0.830631 0.530593
vt 0.767063 0.530593
vt 0.765680 0.756281
vt 0.702111 0.756281
vt 0.702111 0.605097
vt 0.765680 0.605097
vt 0.765680 0.375030
vt 0.765680 0.543555
vt 0.702112 0.543555
vt 0.702111 0.375030
vt 0.830631 0.930461
vt 0.767063 0.930461
vt 0.767063 0.761936
vt 0.830631 0.761936
vt 0.767063 0.721857
vt 0.767063 0.570673
vt 0.830631 0.570673
vt 0.830631 0.721857
vt 0.702112 0.986348
vt 0.702112 0.817823
vt 0.765680 0.817823
vt 0.765680 0.986348
vt 0.702112 0.999309
vt 0.765680 0.999309
vt 0.765680 0.362069
vt 0.702112 0.362069
vt 0.767063 0.748003
vt 0.830631 0.748003
vt 0.767063 0.734824
vt 0.830631 0.734824
vt 0.830631 0.544527
vt 0.767063 0.544527
vt 0.830631 0.557705
vt 0.767063 0.557705
vt 0.765680 0.776605
vt 0.702111 0.776605
vt 0.765680 0.794807
vt 0.702111 0.794807
vt 0.702111 0.584772
vt 0.765680 0.584772
vt 0.702111 0.566571
vt 0.765680 0.566571
vn 1.0000 0.0000 0.0000
vn -1.0000 0.0000 0.0000
vn 0.0000 -1.0000 0.0000
vn 0.0000 -0.0000 -1.0000
vn 0.0000 0.0000 1.0000
vn 0.0000 1.0000 -0.0000
vn -0.9723 0.2339 -0.0000
vn 0.9723 0.2339 -0.0000
vn 0.0000 0.2380 0.9713
vn 0.0000 0.2380 -0.9713
vn 0.9208 0.3901 -0.0000
vn -0.9208 0.3901 -0.0000
vn 0.0000 0.3961 -0.9182
vn 0.0000 0.3962 0.9182
vn 0.0000 0.7071 0.7071
vn 0.0000 0.0763 0.9971
vn 0.0000 -0.9864 0.1645
vn 0.0000 -0.9864 -0.1645
vn 0.0000 0.7071 -0.7071
vn 0.0000 -0.0784 -0.9969
vn 0.0000 0.0763 -0.9971
vn 0.0000 0.9868 -0.1616
vn 0.0000 0.9868 0.1616
vn 0.0000 -0.0784 0.9969
vn 0.0000 0.4060 -0.9138
vn 0.0000 0.8220 -0.5695
vn 0.0000 0.4060 0.9138
vn 0.0000 0.8220 0.5695
vn 0.0000 -0.8484 0.5294
vn 0.0000 -0.4539 0.8910
vn 0.0000 -0.8484 -0.5294
vn 0.0000 -0.4539 -0.8910
usemtl Material.001
s off
f 26/1/1 29/2/1 42/3/1 21/4/1
f 14/5/2 37/6/2 34/7/2 17/8/2
f 4/9/1 10/10/1 30/11/1 25/12/1
f 18/13/2 33/14/2 9/15/2 2/16/2
f 22/17/1 41/18/1 11/19/1 3/20/1
f 33/14/2 18/13/2 20/21/2 35/22/2
f 35/22/2 20/21/2 19/23/2 36/24/2
f 36/24/2 19/23/2 17/25/2 34/26/2
f 13/27/2 38/28/2 40/29/2 15/30/2
f 15/30/2 40/29/2 39/31/2 16/32/2
f 16/32/2 39/31/2 37/33/2 14/34/2
f 41/18/1 22/17/1 24/35/1 43/36/1
f 43/36/1 24/35/1 23/37/1 44/38/1
f 44/38/1 23/37/1 21/39/1 42/40/1
f 25/12/1 30/11/1 32/41/1 27/42/1
f 27/42/1 32/41/1 31/43/1 28/44/1
f 28/44/1 31/43/1 29/45/1 26/46/1
f 1/47/2 12/48/2 38/28/2 13/27/2
f 45/49/3 46/50/3 48/51/3 47/52/3
f 8/53/1 47/52/1 48/51/1 7/54/1
f 5/55/2 46/50/2 45/49/2 6/56/2
f 7/57/4 48/51/4 46/50/4 5/58/4
f 6/59/5 45/49/5 47/52/5 8/60/5
f 53/61/3 54/62/3 56/63/3 55/64/3
f 52/65/1 55/64/1 56/63/1 51/66/1
f 49/67/2 54/62/2 53/61/2 50/68/2
f 51/69/4 56/63/4 54/62/4 49/70/4
f 50/71/5 53/61/5 55/64/5 52/72/5
f 58/73/3 57/74/3 59/75/3 60/76/3
f 63/77/6 64/78/6 68/79/6 67/80/6
f 59/81/4 57/82/4 62/83/4 64/78/4
f 58/84/5 60/85/5 63/77/5 61/86/5
f 60/85/1 59/81/1 64/78/1 63/77/1
f 57/82/2 58/84/2 61/86/2 62/83/2
f 67/80/7 68/79/7 72/87/7 71/88/7
f 62/83/6 61/86/6 65/89/6 66/90/6
f 64/78/6 62/83/6 66/90/6 68/79/6
f 61/86/6 63/77/6 67/80/6 65/89/6
f 69/91/6 71/88/6 72/87/6 70/92/6
f 66/90/8 65/89/8 69/91/8 70/92/8
f 68/79/9 66/90/9 70/92/9 72/87/9
f 65/89/10 67/80/10 71/88/10 69/91/10
f 113/93/3 114/94/3 116/95/3 115/96/3
f 117/97/6 119/98/6 120/99/6 118/100/6
f 115/101/11 116/102/11 120/99/11 119/98/11
f 114/94/12 113/93/12 117/97/12 118/100/12
f 116/103/13 114/104/13 118/100/13 120/99/13
f 113/105/14 115/106/14 119/98/14 117/97/14
s 1
f 75/107/15 73/108/15 81/109/16 90/110/16
f 97/111/17 102/112/17 105/113/18 110/114/18
f 79/115/19 109/116/20 106/117/20 80/118/19
f 74/119/19 76/120/19 93/121/21 86/122/21
f 94/123/22 89/124/23 82/125/23 85/126/22
f 77/127/15 101/128/24 98/129/24 78/130/15
f 74/131/19 77/127/15 78/130/15 76/132/19
f 75/133/15 79/115/19 80/118/19 73/134/15
f 86/122/21 93/121/21 95/135/25 88/136/25
f 88/136/25 95/135/25 96/137/26 87/138/26
f 87/138/26 96/137/26 94/123/22 85/126/22
f 90/110/16 81/109/16 83/139/27 92/140/27
f 92/140/27 83/139/27 84/141/28 91/142/28
f 91/142/28 84/141/28 82/125/23 89/124/23
f 102/112/17 97/111/17 99/143/29 104/144/29
f 104/144/29 99/143/29 100/145/30 103/146/30
f 103/146/30 100/145/30 98/129/24 101/128/24
f 110/114/18 105/113/18 107/147/31 112/148/31
f 112/148/31 107/147/31 108/149/32 111/150/32
f 111/150/32 108/149/32 106/117/20 109/116/20
